<?xml version="1.0" encoding="iso-8859-1"?>
<!-- Uploaded to: SVG Repo, www.svgrepo.com, Generator: SVG Repo Mixer Tools -->
<svg fill="#000000" height="800px" width="800px" version="1.1" id="Layer_1" xmlns="http://www.w3.org/2000/svg" xmlns:xlink="http://www.w3.org/1999/xlink" 
	 viewBox="0 0 511.996 511.996" xml:space="preserve">
<g>
	<g>
		<path d="M510.721,323.457c-4.235-17.366-17.332-29.038-32.59-29.038c-0.077,0-0.162-0.009-0.239,0h-25.375v-17.076h34.152
			c4.722,0,8.538-3.825,8.538-8.538v-34.152c0-4.713-3.817-8.538-8.538-8.538h-17.076v-17.076c0-4.713-3.816-8.538-8.538-8.538
			h-85.38v-25.614c0-1.084-0.205-2.16-0.606-3.176l-17.076-42.69c-1.306-3.236-4.44-5.362-7.932-5.362h-8.538v-8.538
			c0-4.713-3.816-8.538-8.538-8.538h-68.304c-4.721,0-8.538,3.825-8.538,8.538v8.538h-25.614c-0.555,0-1.127,0.051-1.673,0.171
			l-41.862,8.367h-24.769c-4.721,0-8.538,3.825-8.538,8.538v8.538h-85.38v-8.538c0-4.713-3.817-8.538-8.538-8.538H8.54
			c-4.721,0-8.538,3.825-8.538,8.538v34.152c0,4.713,3.817,8.538,8.538,8.538h51.228c4.722,0,8.538-3.825,8.538-8.538v-8.538h85.38
			v8.538c0,4.713,3.817,8.538,8.538,8.538h17.076v17.076h-68.304c-4.721,0-8.538,3.825-8.538,8.538v17.076H42.692
			c-2.271,0-4.44,0.896-6.036,2.502L2.504,262.768c-3.338,3.338-3.338,8.734,0,12.073l25.614,25.614
			c3.338,3.338,8.734,3.338,12.073,0l23.112-23.112h64.769v17.076H85.143c-15.257,0-28.355,11.672-32.59,29.038
			c-3.919,16.094,0.777,36.816,19.817,46.677l61.73,35.279h295.074l61.423-35.108C509.953,360.273,514.64,339.551,510.721,323.457z
			 M51.23,166.349H17.078v-17.076H51.23V166.349z M170.763,166.349v-17.076h17.076c0.555,0,1.127-0.051,1.673-0.171l41.862-8.367
			h33.307c4.722,0,8.538-3.825,8.538-8.538v-8.538h51.228v8.538c0,4.713,3.816,8.538,8.538,8.538h11.296l14.318,35.791v49.589
			h-17.076v-17.076c0-4.713-3.816-8.538-8.538-8.538H196.377v-25.614c0-4.713-3.817-8.538-8.538-8.538H170.763z M59.768,260.267
			c-2.271,0-4.44,0.896-6.036,2.502l-19.578,19.578l-13.541-13.541l25.614-25.614h64.769c4.721,0,8.538-3.825,8.538-8.538v-17.076
			h204.913v17.076c0,4.713,3.816,8.538,8.538,8.538h34.152c4.722,0,8.538-3.825,8.538-8.538v-17.076h76.842v17.076
			c0,4.713,3.816,8.538,8.538,8.538h17.076v17.076H443.98c-4.722,0-8.538,3.825-8.538,8.538v25.614H145.149v-25.614
			c0-4.713-3.816-8.538-8.538-8.538H59.768z M482.435,355.312l-57.802,33.025H138.634l-58.11-33.196
			c-11.885-6.164-13.558-18.741-11.39-27.646c1.947-7.966,7.65-16,16.009-16h392.749c0.102,0,0.179,0,0.239,0
			c8.359,0,14.054,8.034,16,16.009C496.301,336.401,494.627,348.986,482.435,355.312z"/>
	</g>
</g>
</svg>